<?xml version="1.0" encoding="utf-8"?>
<!-- Generator: Adobe Illustrator 27.9.0, SVG Export Plug-In . SVG Version: 6.00 Build 0)  -->
<svg version="1.1" id="Layer_1" xmlns="http://www.w3.org/2000/svg" xmlns:xlink="http://www.w3.org/1999/xlink" x="0px" y="0px"
	 viewBox="0 0 500 499.1" style="enable-background:new 0 0 500 499.1;" xml:space="preserve">
<style type="text/css">
	.st0{display:none;fill:#1A1A1A;}
	.st1{fill:#FDDB6B;}
</style>
<rect x="-141.4" y="25.6" class="st0" width="1366" height="768"/>
<g>
	<path class="st1" d="M32.4,433.7l-2.7-1.9l-5.2-3.6l-2.5-1.6l-4.1-3l-1.9-1.4l-2.7-2.2l-2.2-1.6l0,0l0.8-2.2l0.5-1.4l2.2-4.4
		l1.4-2.5l3.3-6.3l1.9-3.3l4.4-8l2.2-4.1l5.2-9.6l2.7-4.9l6-10.7l3-5.5l6.6-11.5L62,325.7l5.8-9.6L78.5,298l5.2-8.8l9.9-16.7
		l4.9-8.2l9.3-15.7l4.4-7.7l8.5-14.6l4.1-7.1l7.7-13.2l3.8-6.6l7.1-12.1l3.6-6l6.6-11.3l3.3-5.5l6-10.2l3-4.9l5.5-9.1l2.7-4.4
		l4.9-8.2l2.5-3.8l4.4-7.4l2.2-3.6l3.8-6.6l1.9-3l3.3-5.8l1.6-2.7l3-4.9l7.1-12.4l2.5-4.1l4.4-6.9l2.2-3.3l3.8-4.9l1.9-2.2l3-3
		l3.3-1.9h0.8l3.3,1.6l1.9,1.1l5.2,3.3l2.7,1.9l6.6,4.7l10.4,7.7l2.7,2.2l4.7,3.8l2.2,1.9l3.8,3.6l3.8,3.3l6,6.6l2.7,3.3l5.2,7.7
		l1.4,1.9l2.7,4.7l4.4,7.7l1.9,3.6l5.2,9.3l2.7,4.9l6,11l3,5.8l6.3,11.5l9.1,15.9l1.4,2.5l3.3,5.8l1.6,3l3.8,6.9l3.8,6.9l8.8,15.7
		l4.7,8l9.3,16.5l13.2,23.3l1.9,3.6l4.7,8.2l2.5,4.1l5.2,9.3l5.5,9.6l11.8,20.6l6,10.4l12.1,20.9l3,4.9l5.8,9.6l8,13.5l37.1,62.3
		l-83.5,0.8l-83.5,0.8l-24.4-15.9l-4.1-2.7l-7.1-4.9l-3.3-2.5l-5.2-4.7l-2.5-2.2l-3.6-4.1l-3.8-6l-1.4-3l-3-4.4l-0.8-0.8l-1.4-1.1
		l-1.6-0.3l-0.5,0.3l-1.9,2.5l-1.1,1.6l-3,4.7l-1.6,2.5l-3.8,6l-6,10.2l-15.1,25.5l-86.8-0.3L53,447.4L32.4,433.7 M237.8,391.1
		l3-5.5l6.3-10.7l3-5.2l5.8-9.6l2.7-4.4l4.7-7.1l1.1-1.6l1.9-2.5l2.2-2.7l8.2-10.2l10.2,14.6l0.8,1.1l1.6,2.7l0.8,1.4l1.9,3.3
		l2.2,3.6l4.9,8.5l15.7,28.3l2.5,4.7l4.7,8.5l2.2,4.1l4.1,6.9l1.9,3.3l3,4.7l0.5,0.8l0.8,1.4l0.8,1.1h0.3l1.6,0.3h0.8l3,0.3h1.6h4.1
		h2.2h5.2h5.5l13.5-0.3l22.5-0.8l57.1-2.2l-10.4-16.2l-0.8-1.1l-2.7-4.4l-1.6-2.5l-4.1-7.1l-2.2-3.8l-5.5-9.3l-2.7-4.9l-6.6-11.3
		l-3.3-5.8l-7.4-12.9l-3.8-6.6l-8-14.3l-25.5-45.3l-8.8-15.7l-17-30.5l-4.1-7.4l-8-14.3l-3.8-6.9l-7.4-13.2l-3.6-6.3l-6.3-11.5
		l-3-5.5l-5.2-9.6l-2.5-4.4l-3.8-7.1l-4.4-7.7l-14.8-26.6l-46.7,78l-3.3,5.5l-6.9,11.5l-3.6,5.8l-7.1,12.1l-7.1,12.4l-14.6,24.7
		l-3.6,6l-6.9,11.8l-3.3,5.8l-6.3,11l-3,5.5l-5.8,9.9l-7.4,13.2l-4.4,8l-9.3,15.9l-4.7,8l-8.8,14.8l-2.2,3.6l-3.8,6.6l-1.9,3.3
		l-3.6,5.8l-1.6,2.7l-2.7,4.7l-3.6,5.5l-1.9,3l-3.6,5.5l-1.6,2.7l-2.7,4.7l-1.4,2.2l-1.6,3l-1.1,2.2l0,0l1.4,0.3h0.8l2.7,0.3h1.6
		l4.1,0.3h2.2h5.5h2.7h6.6h10.7l24.4-0.3l63.2-0.8L237.8,391.1 M120.5,339.5l6.3-11l14-23.6l6.9-12.1l14-23.9l3.3-5.8l6.6-11.3
		l3.3-5.5l6-10.2l3-4.9l5.2-9.1l6.9-11.5l4.1-6.9l8.8-14.8l4.4-7.4l8.5-14.6l4.1-7.1l7.4-12.6l1.6-3l3-5.2l3.8-6.6l16.5-28.6
		l-7.1-5.5l-1.9-1.4l-5.8-3.8l-8.2-5.2l-8.8-5.2l-46.4,77.7l-3.3,5.2l-6.9,11.5l-3.6,5.8l-7.1,12.1l-7.1,12.1l-14.6,24.7l-3.6,6
		l-6.9,11.8l-3.3,5.8l-6.3,11l-3,5.5l-5.8,9.9l-7.4,13.2l-4.4,8l-9.3,15.9l-4.7,8l-8.8,14.8l-2.2,3.6l-3.8,6.6l-1.9,3.3l-3.6,5.8
		l-1.6,2.7l-2.7,4.7l-3.6,5.5l-1.9,3l-3.6,5.5l-1.6,2.7l-2.7,4.4l-1.4,2.2l-1.6,3l-1.1,2.2v0.3l1.1,1.4l0.8,0.8l2.2,1.9l2.5,1.9
		l7.1,4.9l3.6,2.5l6.6,4.1l1.6,0.8l2.5,1.4l2.2,0.8h0.3l1.4-1.6l0.8-1.1l2.5-3.6l1.4-1.9l3.6-5.2l1.9-2.7l4.4-6.9l2.2-3.6l4.9-8.2
		l2.5-4.1l5.5-9.3l2.7-4.7l6-10.2l3-5.2 M286.9,385.9l-1.4-2.5l-2.7-4.7l-1.4-2.2L279,373l-1.1-1.6l-1.9-2.2l-1.9-1.4h-1.1l-1.1,0.5
		l-0.5,0.3v1.6l0.3,1.1l1.4,3.3l3.6,7.1l1.4,2.7l3.8,5.8l1.9,2.7l4.1,5.2l1.9,2.5l3.3,3.3l0.8,0.5l1.1,0.8h1.1l0,0l-0.5-1.6
		l-0.3-1.1l-1.4-3.3l-0.8-1.6l-2.2-4.1l-1.1-2.2L286.9,385.9L286.9,385.9z"/>
</g>
</svg>
