<?xml version="1.0" encoding="utf-8"?>
<!-- Generator: Adobe Illustrator 27.9.0, SVG Export Plug-In . SVG Version: 6.00 Build 0)  -->
<svg version="1.1" id="Layer_1" xmlns="http://www.w3.org/2000/svg" xmlns:xlink="http://www.w3.org/1999/xlink" x="0px" y="0px"
	 viewBox="0 0 1110.6 173.1" style="enable-background:new 0 0 1110.6 173.1;" xml:space="preserve">
<style type="text/css">
	.st0{display:none;fill:#1A1A1A;}
	.st1{fill:#FDDB6B;}
</style>
<rect x="-141.4" y="-300.4" class="st0" width="1366" height="768"/>
<g>
	<path class="st1" d="M16.7,116.5v-5.1V102v-2.2l0.1-4.1v-2v-3.6v-1.7l0.1-2.9v-1.3l0.1-2.1v-1l0.1-1.2l0.1-0.8h0.1l0.2,0.1l0.1,0.1
		l0.4,0.5l0.2,0.3l0.7,1.1l0.4,0.7l1.2,2l0.7,1.1l1.8,3.1l0.5,0.9l1.1,2l0.6,1l1.3,2.4l0.7,1.2l1.6,2.8l0.8,1.4l1.8,3.2l0.9,1.7
		l2.1,3.7l3.4,6.1l1.4,2.6l2.4,4.3l1.1,2l1.8,3.4l0.8,1.6l1.3,2.7l0.6,1.3l0.9,2.1l0.8,2l0.6,3.2v5.1l-0.5,8.3l-16.3,0.4L16.4,154
		L16.7,116.5 M133.9,152.8l-0.2-0.1l-0.3-1l-0.1-0.6l-0.2-1.7l-0.3-6.8v-2.2l0.4-3.6l0.2-0.9l0.5-1.9l0.3-1l0.9-2.3l0.5-1.2l1.4-2.9
		l0.7-1.5l2-3.7l1.1-2l2.6-4.8l4.8-8.7l2.1-3.8l4-7l0.9-1.7l1.8-3.1l0.9-1.5l1.6-2.7l0.7-1.3l1.3-2.3l0.6-1.1l1-1.7l0.5-0.8l0.7-1.1
		l0.6-0.9l0.1-0.1l0.2,0.6l0.1,0.4l0.2,1.6l0.1,0.9l0.1,2.4l0.1,1.3l0.1,3.2l0.1,1.7l0.1,3.9v2l0.1,4.5v2.3v5v8v39.3h-17.8l-4-0.1
		l-1.9-0.1l-3.3-0.2l-1.5-0.1l-2.2-0.2l-0.9-0.1 M82.3,139.2l-0.3-0.4l-0.8-1.2l-0.5-0.7l-1.1-1.7l-0.6-0.9l-1.4-2.2l-0.7-1.1
		l-1.6-2.6l-1.7-2.7l-3.9-6.4l-2-3.4l-4.4-7.5l-2.3-3.8l-4.7-8.1l-2.4-4.1L49.1,84l-2.4-4.2l-4.6-8.2l-6.5-11.7L16.9,25.7l14.5-0.5
		l2-0.1h3.7h1.8l3.1,0.1l1.4,0.1l2.1,0.2l1.6,0.4l0.1,0.1l0.6,0.9l0.3,0.5l1.1,1.7l0.6,0.9l1.5,2.4l0.8,1.3l1.9,3l1,1.6l2.2,3.5
		l1.1,1.8l2.4,4l8,13.1l2.8,4.6l5.2,8.5l1.3,2l2.3,3.8l1.1,1.8l2.1,3.3l1,1.6l1.7,2.8l0.8,1.3l1.4,2.1l0.6,1l0.9,1.4l0.8,1.1
		l0.2,0.2l0.6-0.1l0.3-0.2l0.9-0.8l0.5-0.5l1.3-1.6l0.7-0.9l1.7-2.5l0.9-1.4l2.2-3.4l1.1-1.8l2.7-4.4l1.4-2.3l3.3-5.4l5.6-9.4
		l21.5-36.4h14.8h14.7l-2.6,5.2l-1.2,2.3l-2.8,5.3l-1.9,2.7l-3.2,6l-1.7,3.1l-3.5,6.5l-1.8,3.3l-3.8,6.9l-3.9,6.9l-8.2,14.4
		L118.1,109l-19,32.2h-9.7l-3.7-0.6l-0.8-0.2l-1.3-0.4l-0.6-0.2 M731.6,155.4l-3.1-0.3l-6.1-1.4l-3-0.8l-5.8-2.3l-2.9-1.3l-5.5-3.2
		l-2.7-1.7l-5-3.9l-2.4-2.1l-4.4-4.6l-2.1-2.4l-3.8-5.2l-1.8-2.7l-3-5.7l-3.5-9l-1.1-3.7l-1.2-8.2l-0.5-4.1l0.1-8.4l0.2-4.2l1.4-8
		l0.4-2l1.1-3.7l2-5.2l0.5-1.1l1.5-2.6l0.8-1.4l1.9-2.9l2-2.9l4.7-6l2.4-2.9l4.7-4.9l1.1-1.1l2.1-1.8l2.7-1.9l1.3-0.7l2.9-1.3
		l1.5-0.7l3.3-1.2l3.4-1.2l7.4-2l3.8-0.9l7.6-1.2l10.8-0.8h2.8l5.3,0.3l2.6,0.2l5,0.6l2.4,0.3l4.7,1l2.3,0.5l4.3,1.3l2.1,0.7l4,1.7
		l2,0.9l3.7,2.1l1.8,1.1l3.4,2.4l4.8,4.1l5.9,5.6L791,55.3L779.6,66l-4.8-3.3l-1.3-0.9l-2.3-1.7l-0.5-0.4l-0.8-0.6l-0.7-0.6
		l-0.3-0.3l-0.9-0.7l-0.5-0.4l-1.4-0.7l-1.4-0.7l-3.6-1.3l-1.9-0.6l-3.9-0.9l-5.1-0.6h-3.1l-5.7,0.6l-2.8,0.4l-5,1.4l-2.4,0.8
		l-4.2,2.2l-2,1.2l-3.5,3l-1.6,1.6l-2.7,3.7l-1.2,2l-1.9,4.5l-0.8,2.3l-1.1,5.2l-0.7,8.7v3.3l0.7,5.8l0.5,2.8l1.7,4.9l1,2.3l2.9,4.1
		l5.6,5.5l1.7,1.3l4.2,2.3l2.2,1.1l4.7,1.7l2.3,0.7l4.3,0.8l1,0.1l1.8,0.1l2.4-0.2l1.1-0.2l3.1-0.6l4.5-0.8l1.4-0.2l2.2-0.4l1-0.2
		l1.6-0.4l0.7-0.2l1.1-0.7l0.5-0.4l0.7-1l0.3-0.6l0.4-1.6l0.2-0.9l0.2-2.4l0.1-1.3v-3.3V87.7h31.8V142l-10,4.5l-4.7,2.1l-9.4,3.2
		l-4.7,1.4l-9.5,1.9l-4.8,0.8l-9.7,0.6l-4.9,0.1 M386.7,152.8L386.7,152.8l-0.3-1l-0.1-0.5l-0.1-1.7l-0.1-0.9l-0.1-2.4V145l-0.1-2.9
		l-0.1-3l-0.1-7.3v-3.7v-7.9v-4l0.1-7.6l0.1-3.7l0.2-6.4V97l0.1-2.5l0.1-1.2l0.1-1.9l0.1-0.9l0.2-1.1l0.3-0.7h0.1l0.5,0.4l0.3,0.3
		l0.9,1l0.5,0.5l1.2,1.4l0.7,0.8l1.5,1.8l1.6,1.9l3.8,4.8l6.4,8.2l16.3,21v23.1h-18.7l-4.2-0.1l-2-0.1l-3.4-0.2l-1.6-0.1l-2.3-0.2
		l-1-0.1 M476,149.5l-0.1-0.1l-0.5-0.6l-0.3-0.3l-0.8-0.9l-0.8-1l-2.4-2.9l-1.3-1.6l-3.4-4l-1.8-2.1l-4.1-4.9l-2.1-2.6l-4.8-5.7
		l-2.4-2.9l-5.3-6.3l-2.7-3.2l-5.6-6.8L428.9,93l-43.1-52.1V25.1h15.5h15.5l24.6,29.7l1.7,2l3.7,4.5l1.9,2.3l4,4.8l4,4.9l8.3,10.2
		l4.1,5.1l7.9,9.7l1.9,2.3l3.5,4.3l4.7,5.9l1.3,1.6l2.4,3l1.1,1.4l2.1,2.6l2,2.5l3.2,4.1l1.5,1.9l2.3,3.1l1,1.4l1.5,2.3l0.7,1.1
		l0.9,1.8l0.4,0.9l0.4,1.6l0.3,5.2v8.3h-14h-4.4h-1.3l-2.1-0.1h-1l-1.8,0.1l-0.8-0.1l-1.3-0.3l-1.2-0.3l-1.7-1l-0.8-0.6
		 M546.3,139.6v-14.3h101.8v28.6H546.3V139.6 M833.6,152.8l-0.1-0.2l-0.3-1.3l-0.1-0.8l-0.2-2.4l-0.1-1.3l-0.1-3.1l-0.1-5.2v-13.2
		h103.5l-0.5,13.9l-0.5,13.9l-50.2,0.4h-3.5h-6.7h-3.3h-6.2h-3h-5.6h-2.7l-4.9-0.1h-2.3l-4-0.1h-1.9l-3-0.1h-1.4l-1.8-0.1l-0.7-0.1
		 M967.7,121.2v-9.8v-2.9v-4.8v-2.2l0.1-3.5v-1.6L968,94l0.1-1.1l0.2-1.5l0.1-0.7l0.3-0.8l0.2-0.3l0.4-0.3l0.7,0.1l0.3,0.1l1.9,0.2
		l1.1,0.1l3.1,0.2l1.7,0.1l3.9,0.1l6.3,0.1h15.7l0.5,17.1l0.4,17.1h11.9h2.8l5-0.2l2.4-0.1l4.2-0.3l2-0.2l3.6-0.6l1.7-0.3l3.1-0.8
		l1.5-0.5l2.6-1.1l1.3-0.6l2.3-1.4l1.1-0.8l2.1-1.8l2.9-3.1l0.6-0.7l1.2-1.8l0.6-1l1.1-2.2l1.1-2.3l1.9-5.3l0.9-2.6l1-4.9l0.2-1.1
		l0.1-2l-0.2-2.3l-0.4-1.7l-0.7-2.8l-0.3-1.3l-0.6-2.3l-0.6-2.2l-1-3.2l-0.5-1.4l-1-2.1l-1.8-2.7l-1-1.4l-2.1-2.4l-1-1.1l-2.3-1.9
		l-1.2-0.9l-2.9-1.4l-1.5-0.6l-3.7-1l-2-0.4l-4.9-0.6l-2.6-0.3l-6.4-0.4l-1.7-0.1l-3.7-0.1h-1.9l-4.2-0.1h-2.2h-4.7h-7.7L967.9,54
		V25.2l42.5,0.5h2.5l4.7,0.1h2.3l4.1,0.1h2l3.6,0.1h1.7l3.1,0.1l3,0.1l4.9,0.2l2.3,0.1l3.6,0.3l1.7,0.1l2.7,0.4l1.3,0.2l2.2,0.5
		l6.2,2.2l1.6,0.7l3.3,1.7l1.6,0.9l3.2,2.1l3.2,2.2l6,5.3l2.9,2.8l5.1,6.2l6.1,9.8l0.6,1.2l1,2.1l0.5,1l0.8,1.8l0.7,1.8l0.8,3.5
		l0.3,1.8l0.3,4.5l0.1,1.3v2.9V89v2v3.3v1.6l-0.1,2.6v1.3l-0.2,2.2l-0.1,1l-0.3,1.9l-0.3,1.8l-1.2,3.4l-0.3,0.9l-0.9,2l-1.6,3.4
		l-1.8,3.6l-4.6,6.7l-2.4,3.2l-5.8,5.8l-3,2.8l-6.8,4.7l-11.1,5.7l-11.8,4.8l-40.2,0.5l-40.2,0.5L967.7,121.2 M546.3,87.9V74.4
		h101.8v27H546.3V87.9 M832.5,87.9V74.4h103.4v27H832.5V87.9 M505.6,89l-0.4-0.3l-1.2-1.6l-1.7-3.1l-0.1-0.3l-0.5-0.9l-0.3-0.5
		l-0.8-1.2l-0.9-1.3l-2.6-3.5l-1.4-1.8l-3.3-4.2l-5.5-6.6l-13.7-16.2V25.1h36.6v36.1l-0.1,8v1.9l-0.1,3.5v1.7l-0.1,3.1l-0.1,1.5
		l-0.1,2.5l-0.1,1.2l-0.2,1.9l-0.1,0.9l-0.2,1.1l-0.3,0.8l-0.3,0.2h-1h-0.5 M546.3,38.6V25.1h101.8v27H546.3V38.6 M832.5,38.6V25.1
		h103.4v27H832.5V38.6z"/>
	<path class="st1" d="M197.3,150.3l-1-0.7l-1.9-1.3l-0.9-0.6l-1.5-1.1l-0.7-0.5l-1-0.8l-0.8-0.6l0,0l0.3-0.8l0.2-0.5l0.8-1.6
		l0.5-0.9l1.2-2.3l0.7-1.2l1.6-2.9l0.8-1.5l1.9-3.5l1-1.8l2.2-3.9l1.1-2l2.4-4.2l3.9-6.6l2.1-3.5l3.9-6.6l1.9-3.2l3.6-6.1l1.8-3
		l3.4-5.7l1.6-2.8l3.1-5.3l1.5-2.6l2.8-4.8l1.4-2.4l2.6-4.4l1.3-2.2l2.4-4.1l1.2-2l2.2-3.7l1.1-1.8l2-3.3l1-1.6l1.8-3l0.9-1.4
		l1.6-2.7l0.8-1.3l1.4-2.4l0.7-1.1l1.2-2.1l0.6-1l1.1-1.8l2.6-4.5l0.9-1.5l1.6-2.5l0.8-1.2l1.4-1.8l0.7-0.8l1.1-1.1l1.2-0.7h0.3
		l1.2,0.6l0.7,0.4l1.9,1.2l1,0.7l2.4,1.7l3.8,2.8l1,0.8l1.7,1.4l0.8,0.7l1.4,1.3l1.4,1.2l2.2,2.4l1,1.2l1.9,2.8l0.5,0.7l1,1.7
		l1.6,2.8l0.7,1.3l1.9,3.4l1,1.8l2.2,4l1.1,2.1l2.3,4.2l3.3,5.8l0.5,0.9l1.2,2.1l0.6,1.1l1.4,2.5l1.4,2.5l3.2,5.7l1.7,2.9l3.4,6
		l4.8,8.5l0.7,1.3l1.7,3l0.9,1.5l1.9,3.4l2,3.5l4.3,7.5l2.2,3.8l4.4,7.6l1.1,1.8l2.1,3.5l2.9,4.9l13.5,22.7l-30.4,0.3l-30.4,0.3
		l-8.9-5.8l-1.5-1l-2.6-1.8l-1.2-0.9l-1.9-1.7l-0.9-0.8l-1.3-1.5l-1.4-2.2l-0.5-1.1l-1.1-1.6l-0.3-0.3l-0.5-0.4l-0.6-0.1l-0.2,0.1
		l-0.7,0.9l-0.4,0.6l-1.1,1.7l-0.6,0.9l-1.4,2.2l-2.2,3.7l-5.5,9.3l-31.6-0.1l-31.6-0.1L197.3,150.3 M272.1,134.8l1.1-2l2.3-3.9
		l1.1-1.9l2.1-3.5l1-1.6l1.7-2.6l0.4-0.6l0.7-0.9l0.8-1l3-3.7l3.7,5.3l0.3,0.4l0.6,1l0.3,0.5l0.7,1.2l0.8,1.3l1.8,3.1l5.7,10.3
		l0.9,1.7l1.7,3.1l0.8,1.5l1.5,2.5l0.7,1.2l1.1,1.7l0.2,0.3l0.3,0.5l0.3,0.4h0.1l0.6,0.1h0.3l1.1,0.1h0.6h1.5h0.8h1.9h2l4.9-0.1
		l8.2-0.3l20.8-0.8l-3.8-5.9l-0.3-0.4l-1-1.6l-0.6-0.9l-1.5-2.6l-0.8-1.4l-2-3.4l-1-1.8l-2.4-4.1l-1.2-2.1l-2.7-4.7l-1.4-2.4
		l-2.9-5.2l-9.3-16.5l-3.2-5.7l-6.2-11.1l-1.5-2.7l-2.9-5.2l-1.4-2.5l-2.7-4.8l-1.3-2.3l-2.3-4.2l-1.1-2l-1.9-3.5l-0.9-1.6l-1.4-2.6
		l-1.6-2.8l-5.4-9.7l-17,28.4l-1.2,2l-2.5,4.2l-1.3,2.1l-2.6,4.4l-2.6,4.5l-5.3,9l-1.3,2.2l-2.5,4.3l-1.2,2.1l-2.3,4l-1.1,2
		l-2.1,3.6l-2.7,4.8l-1.6,2.9l-3.4,5.8l-1.7,2.9l-3.2,5.4l-0.8,1.3l-1.4,2.4l-0.7,1.2L226,136l-0.6,1l-1,1.7l-1.3,2l-0.7,1.1l-1.3,2
		l-0.6,1l-1,1.7l-0.5,0.8l-0.6,1.1l-0.4,0.8l0,0l0.5,0.1h0.3l1,0.1h0.6l1.5,0.1h0.8h2h1h2.4h3.9l8.9-0.1l23-0.3L272.1,134.8
		 M229.4,116l2.3-4l5.1-8.6l2.5-4.4l5.1-8.7l1.2-2.1l2.4-4.1l1.2-2l2.2-3.7l1.1-1.8l1.9-3.3l2.5-4.2l1.5-2.5l3.2-5.4l1.6-2.7
		l3.1-5.3l1.5-2.6l2.7-4.6l0.6-1.1l1.1-1.9l1.4-2.4l6-10.4l-2.6-2l-0.7-0.5l-2.1-1.4l-3-1.9l-3.2-1.9l-16.9,28.3l-1.2,1.9l-2.5,4.2
		l-1.3,2.1l-2.6,4.4l-2.6,4.4l-5.3,9l-1.3,2.2l-2.5,4.3l-1.2,2.1l-2.3,4l-1.1,2l-2.1,3.6l-2.7,4.8l-1.6,2.9l-3.4,5.8l-1.7,2.9
		l-3.2,5.4l-0.8,1.3l-1.4,2.4l-0.7,1.2l-1.3,2.1l-0.6,1l-1,1.7l-1.3,2l-0.7,1.1l-1.3,2l-0.6,1l-1,1.6l-0.5,0.8l-0.6,1.1l-0.4,0.8
		v0.1l0.4,0.5l0.3,0.3l0.8,0.7l0.9,0.7l2.6,1.8l1.3,0.9l2.4,1.5l0.6,0.3l0.9,0.5l0.8,0.3h0.1l0.5-0.6l0.3-0.4l0.9-1.3l0.5-0.7
		l1.3-1.9l0.7-1l1.6-2.5l0.8-1.3l1.8-3l0.9-1.5l2-3.4l1-1.7l2.2-3.7l1.1-1.9 M290,132.9l-0.5-0.9l-1-1.7l-0.5-0.8l-0.9-1.3l-0.4-0.6
		l-0.7-0.8l-0.7-0.5h-0.4l-0.4,0.2l-0.2,0.1v0.6l0.1,0.4l0.5,1.2l1.3,2.6l0.5,1l1.4,2.1l0.7,1l1.5,1.9l0.7,0.9l1.2,1.2l0.3,0.2
		l0.4,0.3h0.4l0,0l-0.2-0.6L293,139l-0.5-1.2l-0.3-0.6l-0.8-1.5l-0.4-0.8L290,132.9L290,132.9z"/>
</g>
</svg>
